<?xml version="1.0" standalone="no"?>
<!DOCTYPE svg PUBLIC "-//W3C//DTD SVG 20010904//EN"
 "http://www.w3.org/TR/2001/REC-SVG-20010904/DTD/svg10.dtd">
<svg version="1.0" xmlns="http://www.w3.org/2000/svg"
 width="512.000000pt" height="512.000000pt" viewBox="0 0 512.000000 512.000000"
 preserveAspectRatio="xMidYMid meet">
<metadata>
Created by potrace 1.14, written by Peter Selinger 2001-2017
</metadata>
<g transform="translate(0.000000,512.000000) scale(0.100000,-0.100000)"
fill="#000000" stroke="none">
<path d="M1730 5097 c-54 -28 -81 -63 -118 -157 -78 -196 -128 -427 -131 -597
l-1 -42 -77 2 c-95 2 -143 -19 -188 -82 -29 -42 -30 -46 -30 -159 1 -104 6
-172 20 -280 8 -55 56 -244 75 -292 71 -179 159 -320 266 -426 l72 -71 -75
-79 c-172 -182 -299 -440 -339 -692 -3 -20 -7 -39 -9 -42 -26 -42 -25 -747 0
-985 2 -22 7 -62 10 -90 13 -123 58 -329 92 -418 157 -419 457 -622 994 -674
98 -10 456 -9 544 0 226 25 383 66 527 138 258 128 419 345 503 679 19 71 19
75 30 140 4 25 9 53 11 63 8 45 24 213 31 327 15 246 7 790 -12 820 -2 3 -6
24 -10 48 -13 90 -68 262 -115 358 -71 146 -134 236 -247 352 l-53 53 74 73
c77 75 162 196 214 304 26 54 84 212 83 227 0 2 6 22 13 42 7 21 16 60 20 86
4 27 9 59 12 70 11 57 18 163 19 269 0 113 -1 117 -30 159 -45 63 -93 84 -187
82 l-78 -1 -1 51 c0 29 -2 59 -3 67 -2 8 -6 41 -9 72 -16 142 -84 383 -144
504 -58 116 -167 153 -280 93 -97 -51 -245 -163 -355 -268 l-105 -101 -22 29
c-12 16 -44 40 -70 55 -85 46 -165 30 -243 -48 l-36 -36 -39 43 c-63 68 -145
140 -247 216 -52 39 -97 71 -100 71 -3 0 -28 14 -55 32 -67 41 -139 46 -201
15z"/>
</g>
</svg>
